<?xml version="1.0" encoding="UTF-8"?>
<svg width="700pt" height="700pt" version="1.1" viewBox="0 0 700 700"
    xmlns="http://www.w3.org/2000/svg">
    <g>
        <path class="mouse"
            d="m350.18 560c-102.97 0-186.79-83.82-186.79-186.79v-186.43c0-102.96 83.82-186.79 186.79-186.79 102.97 0 186.79 83.82 186.79 186.79v186.79c0 102.97-83.82 186.79-186.79 186.79zm0-528.93c-85.984 0-155.71 69.73-155.71 155.71v186.79c0 85.625 69.73 155.71 155.71 155.71 85.988 0 155.71-69.73 155.71-155.71l0.003907-186.79c-0.36328-85.984-70.094-155.71-155.72-155.71z" />
        <path class="wheel"
            d="m350.18 435.71c-8.6719 0-15.535-6.8633-15.535-15.535v-62.141c0-8.6719 6.8633-15.535 15.535-15.535 8.6719 0 15.535 6.8633 15.535 15.535v62.141c0 8.6719-6.8633 15.535-15.535 15.535z" />
    </g>
</svg>